<?xml version="1.0" encoding="utf-8"?>
<!-- Generator: Adobe Illustrator 24.1.1, SVG Export Plug-In . SVG Version: 6.00 Build 0)  -->
<svg version="1.1" id="レイヤー_1" xmlns="http://www.w3.org/2000/svg" xmlns:xlink="http://www.w3.org/1999/xlink" x="0px"
	 y="0px" width="490.469px" height="60.341px" viewBox="0 0 490.469 60.341" style="enable-background:new 0 0 490.469 60.341;"
	 xml:space="preserve">
<style type="text/css">
	.st0{fill:#1E90FF;}
</style>
<g>
	<g>
		<path class="st0" d="M60.917,54.509c-5.688,1.224-11.305-0.648-14.33-5.688l-0.072,0.071l-8.929-15.121
			c-3.384,2.089-5.688,5.977-6.265,10.009c0.072,7.129,0.936,15.554,0.936,15.554h-3.744c0,0,0.792-7.993,0.864-14.978
			c-0.432-4.176-2.664-8.209-6.12-10.513l-8.857,15.049l-0.072-0.071C11.305,53.86,5.688,55.732,0,54.509l0.216-0.504
			c4.968,1.008,10.153-1.729,12.817-6.121v0.072c4.824-7.776,1.512-2.448,6.336-10.945c0.792-1.512,1.584-2.952,2.16-4.32
			l0.144-0.432l0.072,0.072c2.232-4.825,3.096-7.993,3.096-7.993l3.96,0.216l-5.185,8.713c2.52,1.44,4.536,3.528,5.833,5.977
			c0-0.36,0-0.792,0-1.296h0.072V12.241H14.978c-6.697,0-12.458,1.872-12.458,1.872v-3.601h27.002V0h3.745
			c0,0-1.512,2.664-1.873,10.513h25.995v3.601c0,0-5.688-1.872-12.457-1.872H31.323c0,0.504,0,0.936,0,1.368
			c0,6.12,0,17.713,0,25.49c1.296-2.448,3.384-4.465,5.904-5.977l-5.112-8.569l3.96-0.216c0,0,1.512,5.4,5.544,12.673
			c4.752,8.497,1.44,3.169,6.265,10.945l0.072-0.072c2.592,4.393,7.849,7.129,12.817,6.121L60.917,54.509z M47.236,25.778
			c-2.953,0-3.384,1.944-3.384,1.944l-0.576,7.632L42.7,27.65c0,0-0.432-1.944-3.24-1.944c3.024,0,3.24-1.944,3.24-1.944
			l0.576-7.488l0.72,7.488C43.996,23.762,44.212,25.778,47.236,25.778z M46.804,19.945c2.016,0,2.16-1.296,2.16-1.296l0.432-5.04
			l0.432,5.04c0,0,0.144,1.296,2.161,1.296c-1.944,0-2.232,1.368-2.232,1.368l-0.36,5.041l-0.432-5.113
			C48.964,21.241,48.676,19.945,46.804,19.945z"/>
		<path class="st0" d="M74.088,29.45l0.144-3.744l4.032,0.576c9.289-0.072,17.93-4.896,23.258-12.457l-13.897-2.088
			c-6.625-1.009-12.169,0.071-12.169,0.071l0.144-3.744l27.434,4.177v0.071l1.44,0.217c-4.969,8.28-13.609,13.465-23.258,14.257
			l20.45,3.097v1.8l-15.337-2.305C79.633,28.37,74.088,29.45,74.088,29.45z M127.157,42.34h-0.072
			c-4.752,10.513-15.266,17.354-26.787,17.425l-20.233,0.072v-3.672c0,0,5.76,1.872,12.457,1.872l7.705-0.072
			c10.873,0,20.81-6.408,25.274-16.417l0.072,0.071c3.456-8.137,3.456-17.497-0.936-25.13l0.576-0.432
			C129.893,24.266,130.901,33.698,127.157,42.34z M111.459,28.082c3.024,0,3.168-1.944,3.168-1.944l0.648-7.632l0.72,7.632
			c0,0,0.216,2.017,3.168,2.017c-2.952,0-3.312,2.017-3.312,2.017l-0.576,7.704l-0.648-7.776
			C114.628,30.099,114.196,28.082,111.459,28.082z M118.732,22.178c2.016,0,2.16-1.296,2.16-1.296l0.432-5.041l0.432,5.041
			c0,0,0.144,1.368,2.16,1.368c-1.944,0-2.232,1.368-2.232,1.368l-0.36,5.112l-0.432-5.185
			C120.892,23.546,120.604,22.178,118.732,22.178z"/>
		<path class="st0" d="M180.435,51.628c-0.072,0.072-0.072,0.072-0.144,0.145l-0.072,0.072c-6.553,6.552-15.625,9.145-24.842,7.92
			l0.144-0.72c8.713,1.152,17.282-2.305,23.474-8.497c3.888-3.96,6.48-9,7.489-14.473c0.72-4.753,2.016-11.018,3.168-19.226
			c1.8-6.697-0.216-11.306-0.216-11.306h4.176l-5.4,30.891C187.204,42.123,184.468,47.38,180.435,51.628z M170.354,28.73
			c3.024,0,3.168-1.944,3.168-1.944l0.648-7.633l0.72,7.633c0,0,0.216,2.017,3.168,2.017c-2.88,0-3.313,2.016-3.313,2.016
			l-0.576,7.705l-0.648-7.777C173.522,30.746,173.09,28.73,170.354,28.73z M177.699,22.826c2.017,0,2.088-1.297,2.088-1.297
			l0.432-5.04l0.504,5.04c0,0,0.144,1.368,2.088,1.368c-1.944,0-2.232,1.368-2.232,1.368l-0.36,5.112l-0.432-5.184
			C179.787,24.194,179.499,22.826,177.699,22.826z"/>
		<path class="st0" d="M268.781,38.812c0,0.071-0.072,0.144-0.145,0.216c-5.4,7.057-13.465,10.801-22.322,11.089l9.649,9.721h-4.32
			c0,0-0.648-2.664-5.041-7.129c-4.464-4.392-21.962-22.178-21.962-22.178h2.304l18.722,18.938
			c8.497-0.216,16.346-4.68,21.602-11.521c3.601-4.824,5.545-10.585,5.545-16.634v-1.152c0,0,0,0,0-0.071
			c-5.328-6.985-13.897-10.657-22.682-10.657h-19.298c-6.697,0-12.457,1.872-12.457,1.872V7.633h56.165v13.681
			C274.542,27.65,272.597,33.698,268.781,38.812z M259.852,25.706c-2.952,0-3.385,2.017-3.385,2.017l-0.576,7.561l-0.575-7.633
			c0,0-0.433-2.017-3.241-2.017c3.024,0,3.241-1.872,3.241-1.872l0.575-7.488l0.721,7.488
			C256.612,23.762,256.828,25.706,259.852,25.706z M259.419,19.873c2.017,0,2.16-1.224,2.16-1.224l0.36-5.04l0.504,5.04
			c0,0,0.145,1.296,2.16,1.296c-1.944,0-2.232,1.296-2.232,1.296l-0.432,5.113l-0.36-5.113
			C261.58,21.241,261.292,19.873,259.419,19.873z M272.741,18.938c-0.144-3.96-0.864-7.488-1.368-9.505h-11.521
			C264.82,11.305,269.285,14.545,272.741,18.938z"/>
		<path class="st0" d="M334.876,54.293c-0.072,0.071-0.145,0.144-0.217,0.216c-7.488,5.473-16.849,6.696-25.777,4.104l0.216-0.721
			c8.425,2.521,17.497,0.36,24.554-4.824c5.761-4.32,9.505-10.657,10.657-17.642h-26.786c-6.769,0-12.529,1.872-12.529,1.872v-3.601
			h27.866l-0.504-6.264c0,0-0.432-2.017-3.24-2.017c3.024,0,3.24-1.872,3.24-1.872l0.576-7.561l0.72,7.561
			c0,0,0.216,1.944,3.24,1.944c-2.952,0-3.384,2.016-3.384,2.016l-0.433,6.192h11.521c0.071-1.224,0.144-2.447,0.144-3.672h-0.072
			v-7.992c0-4.465-0.792-8.497-1.367-10.729h-30.675c-5.473,0-10.945,3.385-12.961,8.425c0,3.528,0,8.064,0,11.449
			c-0.36,5.473-4.249,9.793-9.434,11.593l-0.144-0.576c4.681-1.656,7.704-6.553,7.776-11.521V0.936h3.673
			c0,0-1.009,3.385-1.513,8.569h11.737c0.288,0,0.576,0,0.864,0h33.843v20.09C346.83,39.243,342.581,48.46,334.876,54.293z
			 M304.994,11.809c-2.376,0.36-4.248,0.864-5.257,1.152c-0.071,0.864-0.071,1.872-0.071,2.809c0,0.647,0,1.368,0,2.231
			C300.889,15.481,302.761,13.321,304.994,11.809z M336.46,19.657c2.016,0,2.16-1.296,2.16-1.296l0.359-4.969l0.505,4.969
			c0,0,0.144,1.368,2.16,1.368c-1.944,0-2.232,1.296-2.232,1.296l-0.433,5.041l-0.359-5.112
			C338.621,20.954,338.333,19.657,336.46,19.657z"/>
		<path class="st0" d="M406.876,54.293c-0.072,0.071-0.145,0.144-0.217,0.216c-7.488,5.473-16.849,6.696-25.777,4.104l0.216-0.721
			c8.425,2.521,17.497,0.36,24.554-4.824c5.761-4.32,9.505-10.657,10.657-17.642h-26.786c-6.769,0-12.529,1.872-12.529,1.872v-3.601
			h27.866l-0.504-6.264c0,0-0.432-2.017-3.24-2.017c3.024,0,3.24-1.872,3.24-1.872l0.576-7.561l0.72,7.561
			c0,0,0.216,1.944,3.24,1.944c-2.952,0-3.384,2.016-3.384,2.016l-0.433,6.192h11.521c0.071-1.224,0.144-2.447,0.144-3.672h-0.072
			v-7.992c0-4.465-0.792-8.497-1.367-10.729h-30.675c-5.473,0-10.945,3.385-12.961,8.425c0,3.528,0,8.064,0,11.449
			c-0.36,5.473-4.249,9.793-9.434,11.593l-0.144-0.576c4.681-1.656,7.704-6.553,7.776-11.521V0.936h3.673
			c0,0-1.009,3.385-1.513,8.569h11.737c0.288,0,0.576,0,0.864,0h33.843v20.09C418.83,39.243,414.581,48.46,406.876,54.293z
			 M376.994,11.809c-2.376,0.36-4.248,0.864-5.257,1.152c-0.071,0.864-0.071,1.872-0.071,2.809c0,0.647,0,1.368,0,2.231
			C372.889,15.481,374.761,13.321,376.994,11.809z M408.46,19.657c2.016,0,2.16-1.296,2.16-1.296l0.359-4.969l0.505,4.969
			c0,0,0.144,1.368,2.16,1.368c-1.944,0-2.232,1.296-2.232,1.296l-0.433,5.041l-0.359-5.112
			C410.621,20.954,410.333,19.657,408.46,19.657z"/>
		<path class="st0" d="M465.483,39.604l3.528,20.737h-3.889c0,0,1.944-4.464,0.217-10.944c-0.145-0.648-0.217-1.368-0.288-2.089
			c-2.305-4.608-7.489-7.704-12.674-7.704H434.52v-3.601c0,0,5.761,1.872,12.457,1.872h16.562c-0.359-2.088-0.72-4.032-1.008-5.761
			l-1.368-8.28l-0.072,0.072c-1.728-5.113-6.984-8.354-12.313-8.785c-5.977,0.288-10.801,1.872-10.801,1.872v-3.672h9.864
			c0.792,0,1.513,0,2.305,0h9.217l-2.089-11.953h3.961c0,0-1.944,4.464-0.217,10.944c0,0.36,0.072,0.721,0.145,1.009h25.994v3.672
			c0,0-2.736-0.864-6.624-1.44l0.432,4.537c0,0,0.144,1.368,2.16,1.368c-1.944,0-2.232,1.296-2.232,1.296l-0.359,5.04l-0.433-5.112
			c0,0-0.288-1.296-2.16-1.296c2.017,0,2.16-1.296,2.16-1.296l0.36-4.537c-1.729-0.288-3.673-0.432-5.761-0.432h-13.321
			c0.648,4.032,1.296,8.209,1.944,11.809l1.872,10.945h12.817c6.769,0,12.457-1.872,12.457-1.872v3.601H465.483z M460.731,21.529
			l-1.08-6.408h-4.753C457.418,16.633,459.363,18.865,460.731,21.529z M463.827,39.604h-4.752c2.304,1.296,4.248,3.24,5.616,5.544
			C464.403,43.348,464.115,41.476,463.827,39.604z M478.372,27.218c-2.88,0-3.312,2.017-3.312,2.017l-0.576,7.561l-0.648-7.633
			c0,0-0.432-2.016-3.168-2.016c3.024,0,3.168-1.872,3.168-1.872l0.648-7.562l0.72,7.562
			C475.204,25.274,475.419,27.218,478.372,27.218z"/>
	</g>
</g>
</svg>
